<svg xmlns="http://www.w3.org/2000/svg" width="512" height="512" xml:space="preserve"><path fill="#A5D4AD" d="M0 0h512v512H0z"/><path fill="#FFF" d="M256 334.999c0 4.677-65.312-196.358-66-197.667-5-9.499-11.944-12.58-17.334-14.333-6.103-1.984-20.979-2.808-26.666.167-3.236 1.693-10.146 7.666-9.106 11.167C156 198.667 196.395 300.667 224 369.666c2.03 5.075 11.866 13.333 17.333 13.333h29.334c5.467 0 15.303-8.258 17.333-13.333 27.605-68.999 68-171 87.106-235.333 1.04-3.501-5.87-9.474-9.106-11.167-5.687-2.974-20.563-2.151-26.666-.167-5.39 1.752-12.334 4.833-17.334 14.333-.688 1.309-66 202.344-66 197.667z"/></svg>