<svg xmlns="http://www.w3.org/2000/svg" width="512" height="512" viewBox="0 0 512 512"><symbol id="saveVoice" viewBox="0 0 512 512"><defs><clipPath id="clip-1"><rect x="0" y="0" transform="scale(21.33333,21.33333)" width="24" height="24" fill="none"></rect></clipPath><clipPath id="clip-2"><rect x="24" y="24" transform="scale(10.66667,10.66667)" width="24" height="24" fill="none"></rect></clipPath></defs><g fill="none" fill-rule="nonzero" stroke="none" stroke-width="1" stroke-linecap="butt" stroke-linejoin="miter" stroke-miterlimit="10" stroke-dasharray="" stroke-dashoffset="0" font-family="none" font-weight="none" font-size="none" text-anchor="none" style="mix-blend-mode: normal"><g clip-path="url(#clip-1)"><path d="M0,0h512v256h-256l0,256h-256z" fill="none"></path><path d="M448,149.33333v106.66667h-42.66667v-88.96l-60.37333,-60.37333h-238.29333v298.66667l149.33333,0l0,42.66667h-149.33333c-23.68,0 -42.66667,-19.2 -42.66667,-42.66667v-298.66667c0,-23.46667 18.98667,-42.66667 42.66667,-42.66667h256zM192,320c0,-35.41333 28.58667,-64 64,-64v128c-35.41333,0 -64,-28.58667 -64,-64zM128,128h192v85.33333h-192z" fill="currentColor"></path></g><g clip-path="url(#clip-2)"><path d="M258,258h252v252h-252z" fill="none"></path><path d="M286,350v68l43.83824,0l56.16176,56.16176v-180.32352l-56.16176,56.16176zM360.66667,355.01509v57.96981l-20.31824,-20.31824l-29.01509,0l0,-17.33333l29.01509,0zM403.33333,430.12298l2.88472,-1.44931c16.17467,-8.12629 27.78195,-25.23646 27.78195,-44.67368c0,-19.43722 -11.60242,-36.54498 -27.77224,-44.77552l-2.89443,-1.47328zM460.26163,322.48885c-13.51803,-16.71147 -32.78041,-28.99911 -54.48568,-33.98593l-2.44261,-0.56119l0,25.98168l1.42957,0.42019c15.12071,4.44436 27.90484,13.55771 37.20262,25.83706c9.3005,12.28293 14.70115,27.25197 14.70115,43.81934c0,16.56738 -5.40065,31.53641 -14.70115,43.81934c-9.29778,12.27935 -22.08191,21.39271 -37.20262,25.83706l-1.42957,0.42019l0,25.98168l2.44261,-0.56119c21.70527,-4.98681 40.96765,-17.27445 54.48568,-33.98593c13.51583,-16.70876 21.73837,-38.32893 21.73837,-61.51115c0,-23.18222 -8.22254,-44.80239 -21.73837,-61.51115z" fill="currentColor"></path></g></g></symbol></svg>