<?xml version="1.0" standalone="yes"?>
<svg xmlns="http://www.w3.org/2000/svg" viewBox="0 0 512 512">
<symbol id="playAll" viewBox="0 0 512 512"><defs><clipPath id="clip-1"><rect x="0" y="0" transform="scale(21.33333,21.33333)" width="24" height="24" fill="none"></rect></clipPath><clipPath id="clip-2"><rect x="24" y="24" transform="scale(10.66667,10.66667)" width="24" height="24" fill="none"></rect></clipPath></defs><g fill="none" fill-rule="nonzero" stroke="none" stroke-width="1" stroke-linecap="butt" stroke-linejoin="miter" stroke-miterlimit="10" stroke-dasharray="" stroke-dashoffset="0" font-family="none" font-weight="none" font-size="none" text-anchor="none" style="mix-blend-mode: normal"><g clip-path="url(#clip-1)"><path d="M213.33333,327.68l42.66667,-27.20304v50.55334l-85.33333,54.30303v-298.66667l234.66667,149.33333h-79.57333l-112.42667,-71.68z" fill="currentColor"></path></g><g clip-path="url(#clip-2)"><path d="M288,448h128v-21.33333h-128zM288,320v21.33333h192v-21.33333zM288,394.66667h192v-21.33333h-192z" fill="currentColor"></path></g></g></symbol><symbol id="exportSelected" viewBox="0 0 512 512"><defs><clipPath id="clip-1"><rect x="0" y="0" transform="scale(21.33333,21.33333)" width="24" height="24" fill="none"></rect></clipPath><clipPath id="clip-2"><rect x="24" y="24" transform="scale(10.66667,10.66667)" width="24" height="24" fill="none"></rect></clipPath></defs><g fill="none" fill-rule="nonzero" stroke="none" stroke-width="1" stroke-linecap="butt" stroke-linejoin="miter" stroke-miterlimit="10" stroke-dasharray="" stroke-dashoffset="0" font-family="none" font-weight="none" font-size="none" text-anchor="none" style="mix-blend-mode: normal"><g clip-path="url(#clip-1)"><path d="M192,213.33333h-85.33333l149.33333,-149.33333l149.33333,149.33333h-85.33333v42.66667h-42.66667v-85.33333h24.96l-46.29333,-46.29333l-46.29333,46.29333h24.96v128h21.33333v42.66667l-64,0zM106.66667,384l149.33333,0l0,42.66667h-149.33333z" fill="currentColor"></path></g><g clip-path="url(#clip-2)"><path d="M288,352v64h42.66667l53.33333,53.33333v-170.66667l-53.33333,53.33333zM432,384c-0.00457,-18.23022 -10.33591,-34.88435 -26.66667,-42.98667v85.86667c15.78667,-7.78667 26.66667,-24 26.66667,-42.88zM405.33333,290.45333v21.97333c30.82667,9.17333 53.33333,37.76 53.33333,71.57333c0,33.81333 -22.50667,62.4 -53.33333,71.57333v21.97333c42.77333,-9.70667 74.66667,-47.89333 74.66667,-93.54667c0,-45.65333 -31.89333,-83.84 -74.66667,-93.54667z" fill="currentColor"></path></g></g></symbol><symbol id="exportConnectAll" viewBox="0 0 512 512"><defs><clipPath id="clip-1"><rect x="0" y="0" transform="scale(21.33333,21.33333)" width="24" height="24" fill="none"></rect></clipPath><clipPath id="clip-2"><rect x="24" y="24" transform="scale(10.66667,10.66667)" width="24" height="24" fill="none"></rect></clipPath></defs><g fill="none" fill-rule="nonzero" stroke="none" stroke-width="1" stroke-linecap="butt" stroke-linejoin="miter" stroke-miterlimit="10" stroke-dasharray="" stroke-dashoffset="0" font-family="none" font-weight="none" font-size="none" text-anchor="none" style="mix-blend-mode: normal"><g clip-path="url(#clip-1)"><path d="M192,213.33333h-85.33333l149.33333,-149.33333l149.33333,149.33333h-85.33333v42.66667h-42.66667v-85.33333h24.96l-46.29333,-46.29333l-46.29333,46.29333h24.96v128h21.33333v42.66667l-64,0zM106.66667,384l149.33333,0l0,42.66667h-149.33333z" fill="currentColor"></path></g><g clip-path="url(#clip-2)"><path d="M298.66667,448l90.66667,-64l-90.66667,-64zM394.66667,320v128l90.66667,-64z" fill="currentColor"></path></g></g></symbol><symbol id="exportAll" viewBox="0 0 512 512"><defs><clipPath id="clip-1"><rect x="0" y="0" transform="scale(21.33333,21.33333)" width="24" height="24" fill="none"></rect></clipPath><clipPath id="clip-2"><rect x="24" y="24" transform="scale(10.66667,10.66667)" width="24" height="24" fill="none"></rect></clipPath></defs><g fill="none" fill-rule="nonzero" stroke="none" stroke-width="1" stroke-linecap="butt" stroke-linejoin="miter" stroke-miterlimit="10" stroke-dasharray="" stroke-dashoffset="0" font-family="none" font-weight="none" font-size="none" text-anchor="none" style="mix-blend-mode: normal"><g clip-path="url(#clip-1)"><path d="M192,213.33333h-85.33333l149.33333,-149.33333l149.33333,149.33333h-85.33333v42.66667h-42.66667v-85.33333h24.96l-46.29333,-46.29333l-46.29333,46.29333h24.96v128h21.33333v42.66667l-64,0zM106.66667,384l149.33333,0l0,42.66667h-149.33333z" fill="currentColor"></path></g><g clip-path="url(#clip-2)"><path d="M288,448h128v-21.33333h-128zM288,320v21.33333h192v-21.33333zM288,394.66667h192v-21.33333h-192z" fill="currentColor"></path></g></g></symbol><symbol id="importText" viewBox="0 0 512 512"><defs><clipPath id="clip-1"><rect x="0" y="0" transform="scale(21.33333,21.33333)" width="24" height="24" fill="none"></rect></clipPath><clipPath id="clip-2"><rect x="24" y="24" transform="scale(10.66667,10.66667)" width="24" height="24" fill="none"></rect></clipPath></defs><g fill="none" fill-rule="nonzero" stroke="none" stroke-width="1" stroke-linecap="butt" stroke-linejoin="miter" stroke-miterlimit="10" stroke-dasharray="" stroke-dashoffset="0" font-family="none" font-weight="none" font-size="none" text-anchor="none" style="mix-blend-mode: normal"><g clip-path="url(#clip-1)"><path d="M128,426.66667c-23.46667,0 -42.66667,-19.2 -42.66667,-42.66667v-64h42.66667v64l128,0l0,42.66667zM149.33333,234.66667l30.08,-30.08l55.25333,55.04v-174.29333h42.66667l0,170.66667h-21.33333v85.33333zM332.58667,204.58667l30.08,30.08l-21.33333,21.33333l-60.35928,0z" fill="currentColor"></path></g><g clip-path="url(#clip-2)"><path d="M288,448h128v-21.33333h-128zM288,320v21.33333h192v-21.33333zM288,394.66667h192v-21.33333h-192z" fill="currentColor"></path></g></g></symbol>
</svg>
