<?xml version="1.0" standalone="yes"?>
<svg xmlns="http://www.w3.org/2000/svg" viewBox="0 0 512 512">
<symbol id="saveVoice" viewBox="0 0 512 512"><defs><clipPath id="clip-1"><rect x="0" y="0" transform="scale(21.33333,21.33333)" width="24" height="24" fill="none"></rect></clipPath><clipPath id="clip-2"><rect x="24" y="24" transform="scale(10.66667,10.66667)" width="24" height="24" fill="none"></rect></clipPath></defs><g fill="none" fill-rule="nonzero" stroke="none" stroke-width="1" stroke-linecap="butt" stroke-linejoin="miter" stroke-miterlimit="10" stroke-dasharray="" stroke-dashoffset="0" font-family="none" font-weight="none" font-size="none" text-anchor="none" style="mix-blend-mode: normal"><g clip-path="url(#clip-1)"><path d="M448,149.33333v106.66667h-42.66667v-88.96l-60.37333,-60.37333h-238.29333v298.66667l149.33333,0l0,42.66667h-149.33333c-23.56415,0 -42.66667,-19.10252 -42.66667,-42.66667v-298.66667c0,-23.56415 19.10252,-42.66667 42.66667,-42.66667h256zM192,320c0,-35.41333 28.58667,-64 64,-64v128c-35.41333,0 -64,-28.58667 -64,-64zM128,128h192v85.33333h-192z" fill="currentColor"></path></g><g clip-path="url(#clip-2)"><path d="M288,352v64h42.66667l53.33333,53.33333v-170.66667l-53.33333,53.33333zM432,384c-0.00457,-18.23022 -10.33591,-34.88435 -26.66667,-42.98667v85.86667c15.78667,-7.78667 26.66667,-24 26.66667,-42.88zM405.33333,290.45333v21.97333c30.82667,9.17333 53.33333,37.76 53.33333,71.57333c0,33.81333 -22.50667,62.4 -53.33333,71.57333v21.97333c42.77333,-9.70667 74.66667,-47.89333 74.66667,-93.54667c0,-45.65333 -31.89333,-83.84 -74.66667,-93.54667z" fill="currentColor"></path></g></g></symbol>
</svg>
